<svg xmlns="http://www.w3.org/2000/svg" viewBox="0 0 302 57.72"><title>jupiter inline</title><g id="Layer_2" data-name="Layer 2" fill="white"><g id="Layer_1-2" data-name="Layer 1"><path d="M30.51,5.75c6.24.19,12.62,3.44,17.32,9.92.35.49.44.82,0,1.3-5.66,5.65-11.77,10.7-19,14.29-4.46,2.22-9.09,3.87-14.17,3.78C10.45,35,8.3,32.58,7,29.4s-.72-6,.41-9C10.75,11.57,19.33,5.7,30.51,5.75Z"/><path d="M4.37,27.57a40.76,40.76,0,0,0,1.91,4.56,9.09,9.09,0,0,0,8.28,4.72c5.71.1,10.93-1.73,15.91-4.31A71.55,71.55,0,0,0,49.32,17.89c1.66-1.74,3.2-3.59,4.82-5.37.48-.53,1.06-1,1.59-1.45l.31.21a6.88,6.88,0,0,1-.56,1.32c-1.91,2.73-3.79,5.49-5.8,8.16A123.37,123.37,0,0,1,33.83,38.44a46.63,46.63,0,0,1-12,8.26c-3.73,1.67-7.58,2.45-11.61,1.21C4,46,.61,40.48,1.91,34.08a42.93,42.93,0,0,1,1.93-5.71A3.79,3.79,0,0,1,4.37,27.57Z"/><path d="M50.89,22.18A23,23,0,0,1,18.95,49.69c.94-.33,1.81-.6,2.66-.94,5.43-2.23,10-5.77,14.24-9.7A127.62,127.62,0,0,0,50.39,22.78C50.52,22.61,50.67,22.44,50.89,22.18Z"/><path d="M8.47,49.26a19.83,19.83,0,0,1,5.72,2.28A26.93,26.93,0,0,0,52.81,41.29,26.52,26.52,0,0,0,54,19c-.42-1.12.55-1.49.87-2.32C59.73,26,58.94,41.54,47,51.25A28.79,28.79,0,0,1,8.47,49.26Z"/><path d="M51.17,13.16a80.07,80.07,0,0,0-5.78-5.58A26.77,26.77,0,0,0,13,7,26.51,26.51,0,0,0,1.74,27.63,11.12,11.12,0,0,1,1,30.09a9.39,9.39,0,0,1-.84,2.12C.09,31,0,29.84,0,28.66.37,18.15,4.86,9.9,13.78,4.27A28.78,28.78,0,0,1,50.41,9.76c.32.36.63.73.93,1.1C52.36,12.14,52.36,12.15,51.17,13.16Z"/><path d="M194.28,39.51c1.58-.1,3.16-.23,4.74-.3,1,0,2,0,3.16,0L200.65,45c-2,.19-3.66.31-5.35.57-.21,0-.31.81-.45,1.21,2.48,2.2,5.44-1.79,7.75.67l-1.14,3.36-5.72,1-1-3.87L190.37,53l-.58-.37c3.36-3.81,5.19-8.11,4.55-13.22Zm1.28,5.12c4.76-.53,4.86-.63,4.41-4.5-3.13-.15-4,.28-3.8,1.9l2.72-.27C195.66,43.61,195.66,43.61,195.56,44.63Zm1,5.85c3.19.17,4-.44,3.5-2.64C196.39,47.92,196.18,48.07,196.53,50.48Z"/><path d="M290.61,19.64l-9.24-9.76c0,3.26-1.05,6.56.57,9.51h-2.59a22.91,22.91,0,0,0,.61-3.48c.09-3.08,0-6.17,0-9.26l.54-.19,9.31,9.92c-.17-3.3.94-6.63-.37-9.72h2.38a9.16,9.16,0,0,0-.56,2.13c-.06,3.51,0,7,0,10.53Z"/><path d="M178.86,16.36c-.09-3.28,1.14-6.62-.53-9.69h2.16v12.7l-.87.27L170.49,10c-1,2.49-.38,8.28,1,9.4h-3.09a15.79,15.79,0,0,0,.66-3c.1-3.12,0-6.24.06-9.36,0-.11.12-.22.39-.66Z"/><path d="M197.18,6.73V19.28l-.89.31-9.24-9.7-.55.11c.88,3.09-.59,6.46,1.25,9.39H185a12.79,12.79,0,0,0,.67-2.77c.09-3.31,0-6.63.45-10.24l9.73,10.32c0-3.65.37-6.81-.55-10Z"/><path d="M228.61,50.24c3.53-4,4.17-8.59,3.2-13.43l5.49-3.57,2.05,1.19c-1.12.43-1.82.72-2.53,1-4,1.36-3.1.41-3.11,5,1.47-.29,2.9-.56,4.32-.85s2.66-.87,4.15.63l-4.36.61-.64,14.11-1,0c0-2.3,0-4.6,0-6.91,0-1.56,0-3.12,0-4.67,0-1.72-.67-2.72-2.62-2.21a32.48,32.48,0,0,1-1.44,5.4,26.64,26.64,0,0,1-3,4.27Z"/><path d="M147.53,19.72c-1.41.56-2.77-.16-3.92-1.63a24.41,24.41,0,0,0-2.42-3c-.57-.53-1.49-.7-2.9-1.31l.66,5.68H136.4a45.64,45.64,0,0,0,.11-12.91c1,0,2.41-.06,3.82,0,3.53.18,4.82,2.75,2.91,5.76-.29.45-.63.86-1.19,1.64Zm-9.09-9.58c.48,1.13-1,3.17,1.55,3.21a2.25,2.25,0,0,0,2.45-2.56c0-1.94-1.34-3.71-2.84-3.53C137.53,7.51,138.94,9.2,138.43,10.14Z"/><path d="M69.84,3.93h3.49a15.21,15.21,0,0,0-.56,2.77c-.06,3.86-.09,7.73,0,11.59a8.46,8.46,0,0,1-5,8.43c3.31-3.23,2.93-7.32,2.77-11.29C70.35,11.62,71.23,7.69,69.84,3.93Z"/><path d="M207.8,19.8c-3.39,0-6.88-3.35-6.87-6.53,0-4.33,2.72-7.08,6.93-7.06,3.59,0,6.76,3.5,6.65,7.33A6.59,6.59,0,0,1,207.8,19.8Zm-5.1-7.23c0,3.58,2.07,6.24,5.13,6.44,2.63.18,4.69-1.87,5.05-5,.39-3.42-2.07-6.82-5.05-7S202.75,9.2,202.71,12.57Z"/><path d="M262.33,13c0-4.24,2.65-6.8,6.92-6.77,3.57,0,6.56,3.34,6.51,7.21A6.6,6.6,0,0,1,269,19.85,7.21,7.21,0,0,1,262.33,13Zm11.83.5a6.75,6.75,0,0,0-3-5.85,4.53,4.53,0,0,0-4.8.1c-2.2,1.3-3.07,4.45-2,7.37s3.11,4.22,5.67,3.82S274.14,16.4,274.17,13.47Z"/><path d="M159.23,3.92h4.18c-1.32,2.78-.67,5.82-.59,8.74s-1.23,5.91,1.18,8.46h-4.58C161.06,18.84,161,5.27,159.23,3.92Z"/><path d="M143.33,46.59v7.71c-1.35-.83-1.32-.83-1.13-4.78.08-1.75,0-3.5,0-5.4L139.88,44c2-1.38,5-2.08,6.39-1.22l-3.33,1,1.88,2.51,4-3.3,1.71.9-4.68,3c2.19,2.28,3.37,2.77,9.37,4.34-1.46.21-3,.78-4.35.53a8.37,8.37,0,0,1-3.71-2.11A26.16,26.16,0,0,1,144.28,46Z"/><path d="M78.06,6.72h2.29c0,3.21-.24,6.4,0,9.55.14,1.83,2,2.8,4,2.62a3.31,3.31,0,0,0,3.18-3.32c.07-2.3.06-4.61,0-6.91a6.35,6.35,0,0,0-.8-2h2.53c-.17,1.17-.42,2.33-.49,3.5-.09,1.62,0,3.25,0,4.88a4.82,4.82,0,0,1-4.78,4.8,5.38,5.38,0,0,1-5.31-5.07c0-1.83,0-3.66,0-5.48A18.48,18.48,0,0,0,78.06,6.72Z"/><path d="M227.63,36.11c2.52,1.61-.17,2.28.08,3.42l2.66-.19.12.56-3.95.89.45,2,3.14-.33c-.63,1.75-3.62,0-3.37,2.76a12.57,12.57,0,0,1,1.9.52,2.59,2.59,0,0,1,.94.89c.06.09-.23.61-.33.6a2.77,2.77,0,0,1-1.06-.33,12.41,12.41,0,0,1-1.16-.8l-1,5.29-.65,0-1.65-2.12c3.35-.71,1.32-3.28,2.32-5.2l-5.45.6-.07-.7a36.92,36.92,0,0,0,3.9-.68c.46-.13.77-.79,1.15-1.21-.51-.28-1-.81-1.52-.77-1.07.08-2.1.52-3.17.66a15.19,15.19,0,0,1-2.51-.09v-.72c1.55-.21,3.1-.55,4.66-.61C225.7,40.37,227.61,39.47,227.63,36.11Z"/><path d="M93.92,19.53a61.68,61.68,0,0,0-.08-12.91c1.09,0,2.62,0,4.15,0,1.78,0,3,.75,3.17,2.68a3.75,3.75,0,0,1-3.11,4.13c1.67-1.26,2.13-2.75,1.34-4.5C98.79,7.59,97.72,7.05,96,7.46c-.07,4-.36,8,.21,12.07Z"/><path d="M230.3,19.48h-2.22c3-3.68,3.4-8.6,5.58-13l5.41,12.81-2,.15c-.51-1.5-.89-2.93-1.49-4.25-.45-1-3.64-1-4,0A37.86,37.86,0,0,0,230.3,19.48Zm1.78-6h2.84l-1.38-4.42Z"/><path d="M132.59,17.56l-.42,1.88h-6.11a64.05,64.05,0,0,0,.07-12.83h6.06L132,7.83,128,7.18v4.88h3.78V13.6l-3.9-.78c.61,2.19-.93,4.36,1.19,5.73C130.33,19.34,131.58,18.78,132.59,17.56Z"/><path d="M144,33.23l-2.13.61v8.93l-.75,0-.56-1.65c-2.19.41-4.38.86-6.58,1.21-.33.05-.72-.29-1.13-.47.56-.47.65-.61.75-.62,3.49-.17,3.5-.17,3.6-3.72,0-.93,0-1.86,0-2.81L135,34.27c3-.55,5.91-2.12,9-1.69Zm-5.7,1.09v1.52l2,.21L138,37.6l.36.44,1.92.14c-2.31,1.14-2.31,1.14-1.8,2.76.84-.53,2.17-.92,2.27-1.51a33.85,33.85,0,0,0,.11-5.52Z"/><path d="M206.16,50.86l2.83.19c-.1-6.37.61-12.62-1.07-18.76,2-.22,2.37.3,2.3,2.38-.12,3.38,0,6.76.11,10.15,0,2.1.28,4.2.17,6.29a15.31,15.31,0,0,1-1.15,3.55Z"/><path d="M164.19,45.78v2l2.52-.28.1.56-2.69.6L162.9,53l-.74-.12,1.35-10.61c4.77-.94,4.77-.94,6.15,0-1.52,3.54,1.18,7.64-1.38,11.49l-1.75-2.25c1.95-.92,2.32-4.23,1.09-9-3-.53-3.7,0-3.15,2.36l2.27-.26.13.54Z"/><path d="M222.34,19.78c-2.9-4.15-2.87-9.42-6.23-13.05h2.59l3.77,10.33c1.56-3.68,3.33-6.64,3.81-10.29h1.77Z"/><path d="M173.79,46.77l3.9-2.61,1.08,1.14a3.29,3.29,0,0,1-.6.4,16.13,16.13,0,0,1-2.9.9c-1.76.24-2,1.31-1.82,2.75s1,2.07,2.45,2.11c2.86.07,5.39-.28,5.51-4.33l.48.45c0,.28.09.57.14.85.64,3.58.21,4.1-3.76,4.51s-5.62-.9-5.68-4.15c0-1.08,0-2.17,0-3.25s-.16-2-.25-3C173.61,43,173.61,43,173.79,46.77Z"/><path d="M248.35,19.46H246c0-3.71,0-7.42,0-11.14,0-.3-.71-.83-1.09-.82a29.62,29.62,0,0,0-3.4.41c-.09-.87.16-1.38,1.52-1.33,3,.12,5.95,0,9,0l.1,1.76c-.26-.08-.42-.14-.59-.17a19.56,19.56,0,0,0-3.43-.51,6.79,6.79,0,0,0-.42,2.35c-.06,2.1-.1,4.2,0,6.3A18.48,18.48,0,0,0,248.35,19.46Z"/><path d="M301.72,6.71l-.35,2c-.39-.52-.62-1.12-1-1.19-.84-.17-2.1-.47-2.51,0a2.71,2.71,0,0,0-.43,2.57,20.76,20.76,0,0,0,3.13,3.15c1.27,1.25,1.87,2.7.94,4.38s-3.6,2.72-5.11,1.9c-.67-.37-1-1.43-1.65-2.53,1.45.86,2.31,1.71,3.26,1.82a3.07,3.07,0,0,0,2.31-1.22c.31-.43,0-1.59-.35-2.17a28.48,28.48,0,0,0-2.49-2.65c-1.21-1.34-2.81-2.62-1.65-4.75C296.7,6.49,299.38,5.9,301.72,6.71Z"/><path d="M118.27,19.45h-2.59v-12l-4.21.45.29-1.27h10.17v1.8a7.92,7.92,0,0,0-1.17-.72c-2.19-.88-3.14-.23-3.15,2.1s0,4.62,0,6.92A15.4,15.4,0,0,0,118.27,19.45Z"/><path d="M179.31,38c1.5,3.07.38,3.47-2,3.87-3.93.66-5-.36-5-4.38,0-1.93-.21-3.85-.32-5.75,1.72.13,1.93.39,1.63,2.14-.15.91-.19,1.85-.33,3.35l4.18-2.92,1.11,1.19c-1.47.6-2.69,1.17-3.95,1.59s-1.43,1.09-1.26,2.31,1,1.39,2,1.43A3.54,3.54,0,0,0,179.31,38Z"/><path d="M148.51,37.25l4,3.23-.56.76-4.21-2.69-4,2.28-.21-.29,3-2.63-2.69-1.85c1.69-.22,4.23,2.33,4.28-1.65l-3.44.57c2.78-2.1,4.11-2.21,5.86-.75Z"/><path d="M104.76,19.53c1.07-4.26.61-8.5.32-12.8h2.08c-.13,4.29-.6,8.53.33,12.8Z"/><path d="M255.76,19.54c.92-4.32.41-8.52.43-12.79H258c-.11,4.26-.81,8.54.5,12.79Z"/><path d="M194.33,39.45l-4.41,3.91-.4-.4c3.16-3.23,6.33-6.44,7.17-11.5,1.07,2.5,4.66,1.78,5.24,5l-4.1-2.35-3.56,5.43Z"/><path d="M166.08,32.45l2.11,1.16-4.72,5.31c1.91-.53,4.37.16,5.44-2.33,1.79.55,2.24,1.41,1.28,3.41l-1.3-1.63-7.9,3c.39-1,.46-1.73.87-2A11.94,11.94,0,0,0,166.08,32.45Z"/><path d="M204.54,37.31c1.13.31,2,.6,1.61,2.38-.37,1.6-.06,3.36-.09,5.05,0,.7-.13,1.41-.21,2.11l-.56.13c-.25-.52-.7-1-.72-1.57C204.5,42.77,204.54,40.12,204.54,37.31Z"/><path d="M133,53c2.23-2.09,5.11-3.52,6.29-6.91l1.91.6C138.91,49.8,136.42,52,133,53Z"/><path d="M230.42,35.12c-2.56,1.25-6.74,1.76-8.32.94l8.23-1.53Z"/><path d="M139.21,45.11c-.62.5-1.16,1-1.75,1.4-1,.7-2,1.35-3.18,2.15C135.65,45.89,137.75,44.37,139.21,45.11Z"/><path d="M220.21,49.47l1.55-3.78.87.29-1.19,3.91Z"/><path d="M228.13,34.28l-3-2.45C227.73,31.39,228.4,31.89,228.13,34.28Z"/></g></g></svg>