<svg xmlns="http://www.w3.org/2000/svg" viewBox="0 0 646.89 579.31"><defs><style>.cls-1{fill:#fff;}</style></defs><title>white logo</title><g id="Layer_2" data-name="Layer 2"><g id="paulfoliio_logo" data-name="paulfoliio logo"><path class="cls-1" d="M459.86,340.3c-.44.55-.77,1.33-1.35,1.63-4.28,2.2-5.84,6.12-6.93,10.45-2.6,10.32-5.17,20.65-8,30.9-1.7,6.1-4.18,12-8.33,16.88-5.56,6.59-13.27,8.9-21.36,9.89a107.16,107.16,0,0,1-38.22-1.82c-14.23-3.4-24.77-11.5-31.93-24.32-5.58-10-9.27-20.73-13.33-31.34-2.15-5.61-5.06-7.51-10.66-7.31-5.19.19-7.83,2.24-9.55,7.23-2.5,7.24-4.89,14.54-7.68,21.67a68.6,68.6,0,0,1-11.27,18.71,44.16,44.16,0,0,1-25,15.53c-13.72,3.07-27.43,3.92-41.39,1.5-14.39-2.5-22.56-11.29-26.23-24.8-2.9-10.7-5.37-21.52-8.12-32.27-1.09-4.25-2.61-8.25-6.93-10.5-.76-.39-1.24-2-1.24-3,0-4.42.09-8.86.5-13.26a3.77,3.77,0,0,1,2.52-2.45,158.41,158.41,0,0,1,16.57-2.6c13.58-1.13,27.18-2.46,40.79-2.74a181.14,181.14,0,0,1,63.84,10.3,40.67,40.67,0,0,0,28.62-.53c24.48-9.29,50-11,75.75-9.53,14.41.83,28.77,2.52,43.14,3.91,11,.43,4.68.58,5.88,4.89Zm-21.19,15.49a71.16,71.16,0,0,0,0-8.12c-1.32-11.39-4.71-15.91-15-18.23a136.12,136.12,0,0,0-40.33-3.11,116.38,116.38,0,0,0-30.2,5.85c-5.13,1.81-8.74,5.05-9.76,10.56a31.16,31.16,0,0,0-.61,7A68.17,68.17,0,0,0,357.41,390a31.84,31.84,0,0,0,18.11,11.61,98.87,98.87,0,0,0,36.29,2c10.38-1.44,18.31-6.29,21.94-16.75A83.38,83.38,0,0,0,438.66,355.78Zm-188.87-29.6c-10.22.33-21.55,1.11-32.67,3.83-7.52,1.84-12.05,7.2-13.33,14.93a76.2,76.2,0,0,0,.32,24.54c1.18,7.48,2.3,15,5.69,21.92s8.37,11.23,16,12.78a85.59,85.59,0,0,0,39.67-1.51,31.7,31.7,0,0,0,18-12.19c8.19-11.35,13.36-23.93,14.51-38,1.08-13.14-3.68-19.37-16.52-22.54A143.85,143.85,0,0,0,249.79,326.18Z"/><path class="cls-1" d="M423.75,369.53l-50.59,23.08V379.77l36.18-14.46v-.22L373.16,349.6V336.7l50.59,24.05Z"/><path class="cls-1" d="M216.16,360.76l50.59-24.05V349.6l-36.18,15.49v.22l36.18,14.46v12.84l-50.59-23.08Z"/><path class="cls-1" d="M307.71.37C142.08,8.22,7.94,142.59.35,308.24c-5.05,110.23,45.13,209,125.18,271l.39.07,80.77-25,16.2,9.92s24.51-40.19,28.17-59c0,0-25.58-10.44-34.45-18.79l-12-64.21s-8.75,30.17-34.24-13.14a58.41,58.41,0,0,1-8.1-30.69c.23-12.45,2.16-28,10-31.87,0,0,8.35-6.79,12.53,2.61,0,0-2.61-42.8,0-69.95h-9.92s7.31-28.19,13.57-41.76c.59-1.27,1.05-2.27,1.47-3.14l-30.18-.51s8.87-15.14,33.41-24.53l-4.7-6.26s11-19.31,52.2-42.8c0,0,7.83-57.94-7.31-70.47S332,139.3,332,139.3l-5.32-26.62S375.3,135.13,381,147.13v-9.92s45.94,18.27,44.37,64.21c0,0,6.26,3.13,6.79-11.48,0,0,32.36,18.79,24,158.69,0,0,23.49-15.66,25.06,9.92,0,0-4.7,48.55-18.27,59,0,0-4.18,11.48-23,10.44L427,481.74a195.12,195.12,0,0,1-28.71,18.79l32.36,55.33,2.09,4.28,5.22-7.41,5.74-8.35s81.43,19.84,86.13,26.62l.63.95a322.74,322.74,0,0,0,116.45-248.5C646.89,139.6,493.5-8.43,307.71.37Z"/></g></g></svg>