<svg xmlns="http://www.w3.org/2000/svg" viewBox="0 0 291.25 52.44"><title>Medprojects new</title><g id="Layer_2" data-name="Layer 2" fill="white"><g id="Layer_1-2" data-name="Layer 1"><path d="M86.85,44.82h-5V25.18L81,25c-2.05,5.84-4,11.71-6.23,17.49a4.61,4.61,0,0,1-2.56,2.38c-1.77.6-2.77-.46-3.36-2.26-1.66-5.1-3.5-10.14-5.29-15.2a4.92,4.92,0,0,0-2-2.7V44.55c-5.11.91-5.19.85-5.19-3.67,0-8.25,0-16.51,0-25.22,1.87,0,3.4.12,4.91,0,1.9-.19,2.78.61,3.38,2.37,2.16,6.33,4.46,12.6,7,19.81.75-1.7,1.22-2.6,1.56-3.54,1.73-4.84,3.67-9.63,5.06-14.56.93-3.29,2.54-4.69,5.9-4.06a22.39,22.39,0,0,0,2.62.16Z"/><path d="M134.85,24.29V15.83h5.08q0,7.14,0,14.26c0,4.78,0,9.57,0,15.26l-6.31-1.74c-5.17,2.78-10.14,2.44-13.9-1.71A12.26,12.26,0,0,1,118.83,27C122.19,22.14,127.17,21.19,134.85,24.29Zm.37,9.65a6.79,6.79,0,0,0-6.58-7,6.69,6.69,0,0,0-6.75,6.78,6.88,6.88,0,0,0,6.59,7A6.73,6.73,0,0,0,135.22,33.94Z"/><path d="M234.89,36.45H218.36c1.4,4,5.35,5.22,9,3.5,2.06-1,4.42-1.29,7.11-2-1.81,6.09-7.72,8.85-13.79,7.21a11.46,11.46,0,0,1-8.25-13.74,11.74,11.74,0,0,1,13.48-8.8C232.25,23.73,236,29.28,234.89,36.45ZM230,31.54c-1.36-3.49-3.74-4.4-6.6-4.2-2.53.18-4.67,1.13-5.31,4.2Z"/><path d="M148.38,34V45h-5.28V15.77c3.95,0,7.75-.3,11.49.08,4.59.47,7.37,4.22,7.27,9-.11,5-3,8.36-7.81,8.86C152.39,33.86,150.72,33.86,148.38,34Zm.17-4.53c2.89-1.14,5.28-1.72,7.17-3,.6-.41.34-3.66-.38-4.06-1.92-1.06-4.3-1.27-6.79-1.89Z"/><path d="M113.45,36.29H97.18c.8,3.94,4.87,5.56,8.65,3.92,2.14-.92,4.44-1.46,7.09-2.3-1.2,5.61-6.68,8.42-12.66,7.25a11.39,11.39,0,0,1-9-13.26,11.56,11.56,0,0,1,13.48-9.17C111.07,24,114.71,29.41,113.45,36.29ZM96.72,31.45h11.95c-1-3.54-3.49-4.32-6.25-4.24S97.54,28.32,96.72,31.45Z"/><path d="M176,34a11.8,11.8,0,0,1,23.61,0,11.84,11.84,0,0,1-11.83,11.62A11.72,11.72,0,0,1,176,34Zm11.94,6.64a6.6,6.6,0,0,0,6.27-6.89,6.73,6.73,0,0,0-6.43-6.46,6.58,6.58,0,0,0-6.39,6.77A6.46,6.46,0,0,0,187.94,40.64Z"/><path d="M260.42,31.21c-2.8-1.05-5.17-1.59-7.15-2.77a6.68,6.68,0,0,0-8.29.84,7.19,7.19,0,0,0-.09,9.24,6.65,6.65,0,0,0,8.24,1.13c2-1.15,4.44-1.68,7.25-2.69-1.42,6-6.31,9.16-11.7,8.59a11.66,11.66,0,0,1-10.8-11.61,11.48,11.48,0,0,1,10.52-11.47A10.9,10.9,0,0,1,260.42,31.21Z"/><path d="M276.06,37.42c1.82.8,3.6,1.67,5.46,2.36a6.7,6.7,0,0,0,3.07.5,2.09,2.09,0,0,0,1.12-1.73,4.27,4.27,0,0,0-1.75-2.11,27.54,27.54,0,0,0-3.41-1.37c-3.78-1.66-5.22-4.22-4.33-7.63.78-3,4-5.18,7.49-5,3.75.17,6.1,2.35,6.71,7.09a59.55,59.55,0,0,0-5.84-1.69,8.82,8.82,0,0,0-2.92.47c.44.85.67,2,1.36,2.47,1.2.75,2.72,1,4,1.54a6.47,6.47,0,0,1,2,10.92,8.14,8.14,0,0,1-8.7,1.86c-3.08-1-4.6-3.27-5-6.37Z"/><path d="M270.72,44.93h-5.38c0-4.82,0-9.47,0-14.12,0-1.36.43-2.85-1.78-3.34-.48-.11-.75-3.84-.54-3.9,3.8-1.1,1.87-4.16,2.34-6.33.09-.42.12-.85.21-1.47h4.52c2.26,2.06-2.19,7.05,3.56,7.44.42,2.46,1.14,4.91-2.92,4.74Z"/><path d="M200.33,52.44c1-2.39,1.78-4.11,2.35-5.92a13.5,13.5,0,0,0,.61-3.88c.06-6.44,0-12.88,0-19.5h5.07c0,7.88.23,15.64-.1,23.38C208.12,50.15,205.65,51.82,200.33,52.44Z"/><path d="M12.37,24.87c0,6,0,6-6.5,6C0,30.88,0,30.88,0,24.21c0-5.68,0-5.68,6.82-5.68C12.37,18.54,12.37,18.54,12.37,24.87Z"/><path d="M26.41,38.6c0,6.28,0,6.28-6.23,6.28S14,44.88,14,38.19c0-5.63,0-5.63,6.9-5.63C26.41,32.57,26.41,32.57,26.41,38.6Z"/><path d="M5.87,44.88c-5.83,0-5.83,0-5.83-6a26.59,26.59,0,0,1,0-3.35c.65-5,4.6-2.55,7.14-2.9,2.14-.29,5-.89,5.15,2.88,0,.89,0,1.79,0,2.68C12.37,44.88,12.37,44.88,5.87,44.88Z"/><path d="M40.31,24.82c0,5.93,0,5.93-6.19,5.93-6,0-6,0-6-6.5,0-5.61,0-5.61,6.87-5.61C40.32,18.65,40.32,18.65,40.31,24.82Z"/><path d="M34.14,44.73c-6,0-6,0-6-6.44,0-5.62,0-5.62,6.52-5.62,5.64,0,5.64,0,5.64,6.49C40.31,44.73,40.31,44.73,34.14,44.73Z"/><path d="M174.77,22.83c.32,2.38.76,4.55-2.57,5.71-1.07.37-1.81,2.93-1.93,4.54-.28,3.86-.09,7.75-.09,11.82h-5.12V23.26Z"/><path d="M12.28,10.76c0,6,0,6-6.12,6-6,0-6,0-6-6.45,0-5.65,0-5.65,6.42-5.64C12.28,4.68,12.28,4.68,12.28,10.76Z"/><path d="M44.92,6.24c0,5.87,0,5.87-6.56,5.86-5.52,0-5.52,0-5.52-6.61,0-5.51,0-5.51,6.59-5.5C44.92,0,44.92,0,44.92,6.24Z"/><path d="M20.22,16.76c-6.05,0-6.05,0-6-6.4,0-5.69,0-5.69,6.42-5.69,5.72,0,5.72,0,5.72,6.72C26.3,16.76,26.3,16.76,20.22,16.76Z"/><path d="M19.91,30.75c-5.75,0-5.75,0-5.74-6.38,0-5.73,0-5.73,6.73-5.73,5.42,0,5.42,0,5.41,6.71C26.3,30.75,26.3,30.75,19.91,30.75Z"/><path d="M208.46,19.52h-4.78a16.65,16.65,0,0,1-.28-2.07c0-.87.11-1.73.19-2.82h4.87Z"/><path d="M191.53,34.59c-1.23,1-2.59,2.85-3.65,2.7a4.76,4.76,0,0,1-3.07-3.36c-.13-1,1.7-3.08,2.8-3.18s2.57,1.48,3.87,2.34Z"/></g></g></svg>