<svg xmlns="http://www.w3.org/2000/svg" viewBox="0 0 290.58 116.99"><title>mwi new</title><g id="Layer_2" data-name="Layer 2" fill="white"><g id="Layer_1-2" data-name="Layer 1"><path d="M63.12,81c.4-.62.67-1,.88-1.35l23.36-41.5c.57-1,1.11-2.06,1.7-3.07a10.7,10.7,0,0,1,9.17-5.49c6.72-.24,13.45-.23,20.17-.26a12.15,12.15,0,0,1,3.2.52,5.22,5.22,0,0,1,4.12,5.55q0,31.61,0,63.21a3.47,3.47,0,0,0,0,.38,1.74,1.74,0,0,1-1.48,2,15.56,15.56,0,0,1-2.58.48,50.12,50.12,0,0,1-14.33-.34c-1.92-.38-2.24-.87-2.24-2.83q0-25.08,0-50.17c0-1.13,0-2.1-1.4-2.4s-1.93.44-2.46,1.44Q91.94,64.74,82.61,82.27c-2.81,5.27-5.73,10.49-8.36,15.84a5.79,5.79,0,0,1-5.3,3.48,69.8,69.8,0,0,1-13.74-.2,5.62,5.62,0,0,1-4.74-3.3q-12.9-25.42-26-50.72a3.74,3.74,0,0,0-1.3-1.44,1.67,1.67,0,0,0-2.52,1.31,9.76,9.76,0,0,0,0,1.25q0,25,0,50c0,1.87-.25,2.41-2.11,2.59-3.51.34-7,.51-10.58.55a35.72,35.72,0,0,1-6-.56c-1.59-.25-2-.82-2-2.39Q0,67.12,0,35.51C0,32.66,1.17,30.93,3.88,30a12.85,12.85,0,0,1,3.79-.69c5.64-.07,11.29-.12,16.93,0a36.37,36.37,0,0,1,7,1,10.65,10.65,0,0,1,7.16,5.8Q50.51,57.94,62.3,79.7C62.5,80.06,62.73,80.39,63.12,81Z"/><path d="M197.45,50.22c-.4.6-.69,1-.93,1.41Q185.2,71.72,173.89,91.81c-1,1.85-2,3.75-3.24,5.49a10,10,0,0,1-8.16,4.27c-6.76.24-13.53.23-20.3.26a12.14,12.14,0,0,1-3.2-.53,5.29,5.29,0,0,1-4.09-5.41q.08-31.67,0-63.34c0-1.85.18-2.31,2-2.49,3.51-.34,7.05-.51,10.58-.56a33.21,33.21,0,0,1,5.84.56c1.71.28,2,.73,2,2.46q0,25.65,0,51.3a4,4,0,0,0,.08,1.61,2.69,2.69,0,0,0,1.3,1.43c.39.12,1.24-.43,1.5-.9,1.8-3.2,3.5-6.46,5.23-9.71Q175.19,54.19,186.9,32.1c1.05-2,2.88-2.34,4.74-2.49a64.7,64.7,0,0,1,13.86.19,5.52,5.52,0,0,1,4.62,3.26c9,17.77,18.15,35.47,27.25,53.2.15.3.26.68.51.85a1.75,1.75,0,0,0,1.17.38,1.55,1.55,0,0,0,.92-.84,3.76,3.76,0,0,0,.07-1.36q0-26.28,0-52.55c0-2.08.13-2.48,2.25-2.7,3.43-.36,6.88-.5,10.33-.54a35.22,35.22,0,0,1,6,.58c1.66.27,1.91.71,1.91,2.38q0,31.67,0,63.34c0,2.92-1.21,4.61-4,5.45a13.45,13.45,0,0,1-3.68.6c-5.6.06-11.21.11-16.81,0a37.36,37.36,0,0,1-6.79-.9,10.74,10.74,0,0,1-7.41-5.87Q213,78.71,204.2,62.4q-2.88-5.35-5.79-10.69C198.17,51.25,197.85,50.84,197.45,50.22Z"/><path d="M270.65,65.35q0-16.18,0-32.36c0-1.86.38-2.43,2.2-3a11.52,11.52,0,0,1,3.3-.62c3.37,0,6.76.08,10.1.46,2.42.27,2.85,1.1,2.85,3.56q0,32,0,64.08c0,2.44-.29,2.95-2.72,3.39a36.25,36.25,0,0,1-13.31-.06c-2-.38-2.42-1-2.42-3.15Q270.64,81.52,270.65,65.35Z"/><path d="M280.08,19.54c-1.89-.18-3.35-.24-4.79-.46-3.51-.55-5.3-2.12-5.76-5.61a25.8,25.8,0,0,1,0-7.08c.58-3.92,2.27-5.38,6.53-6.08a24.63,24.63,0,0,1,9,.22,6.18,6.18,0,0,1,5.2,5.39,19.53,19.53,0,0,1-.19,8.2,5.8,5.8,0,0,1-4.56,4.65C283.58,19.19,281.62,19.33,280.08,19.54Z"/><path d="M88.76,114.85c0-2,0-4,0-6,0-.62,0-1.19.86-1.16s.77.58.77,1.13c0,2.09,0,4.18,0,6.27,0,.52-.27,1.48-.43,1.48a6.52,6.52,0,0,1-2.23-.42c-.31-.11-.5-.54-.74-.83l-5.28-6.42v7.7l-1.71.1c0-2.86,0-5.61,0-8.35,0-.19.36-.56.51-.54a5.49,5.49,0,0,1,2.43.54A13.34,13.34,0,0,1,85,110.84L88.42,115Z"/><path d="M258.82,109.26q0,2.8,0,5.6a3.12,3.12,0,0,1,0,1.12c-.12.3-.49.69-.75.69a1,1,0,0,1-.74-.68c-.06-2.46-.05-4.93,0-7.4,0-.27.35-.74.58-.76.89-.09,1.83-.27,2.53.62,1.48,1.87,3,3.7,4.51,5.54.27.33.56.66.84,1l.35-.1q0-1,0-2.05c0-1.42,0-2.85,0-4.26,0-.3.5-.57.77-.85.28.27.79.53.79.8.06,2.42.06,4.85,0,7.27,0,.93-1.32,1.32-2.33.67a5.41,5.41,0,0,1-1.14-1.14c-1.7-2-3.38-4.11-5.07-6.17Z"/><path d="M145.48,116.93a29.2,29.2,0,0,1-3-.46,3.87,3.87,0,0,1-3.29-4,4.15,4.15,0,0,1,3-4.38,10.34,10.34,0,0,1,6.52-.06,3.75,3.75,0,0,1,2.91,3.76c.07,2.17-.76,3.68-2.65,4.35A25.45,25.45,0,0,1,145.48,116.93Zm-.07-8.65a18.27,18.27,0,0,0-2.62.73,3.33,3.33,0,0,0-1.81,3.66c.16,1.66,1,2.85,2.44,3.08a12.63,12.63,0,0,0,3.82,0,3,3,0,0,0,2.49-2.35C150.53,110.4,148.82,108.42,145.41,108.28Z"/><path d="M106.73,116.83a20.15,20.15,0,0,1-2.12-.18c-2.37-.45-3.69-1.86-3.8-4-.12-2.41,1-4,3.45-4.67a10.24,10.24,0,0,1,6,.05,3.75,3.75,0,0,1,2.94,3.6c.12,2.25-.68,3.8-2.6,4.5a28.16,28.16,0,0,1-3.87.85Zm.37-8.55a18.77,18.77,0,0,0-2.63.7,3.29,3.29,0,0,0-1.9,3.49,3.22,3.22,0,0,0,2.17,3.19,5.82,5.82,0,0,0,4.74-.17,4,4,0,0,0,1.8-2.06C112.27,110.51,110.48,108.44,107.1,108.28Z"/><path d="M60.29,116.65H58.67c0-2.79,0-5.54,0-8.28,0-.22.54-.61.81-.6a1,1,0,0,1,.73.7c.11.74,0,1.51.08,2.25,0,.32.46.82.73.83,1.91.07,3.82,0,5.91,0,0-.89,0-1.67,0-2.45,0-.6-.3-1.44.84-1.42s.78.79.79,1.36c0,2.13,0,4.26,0,6.39,0,1.19-.41,1.51-1.66,1.09,0-1,0-2,0-3,0-.79-.2-1.13-1-1.1-1.54.05-3.09,0-4.63,0-.78,0-1,.31-1,1C60.31,114.51,60.29,115.54,60.29,116.65Z"/><path d="M172.53,109.19c-.41-.09-.83-.15-1.22-.27a9.13,9.13,0,0,0-5.18-.23,3.76,3.76,0,0,0-3.1,3.6,3.56,3.56,0,0,0,3.1,3.43,19.19,19.19,0,0,0,3.34.16c1.21,0,1.62-.62,1.47-1.75-.06-.44-.08-.89-.12-1.36l-3.33-.22s-.08-.13-.31-.5c.9,0,1.64-.09,2.37-.09,3.26,0,3.35.08,2.93,3.38a1.45,1.45,0,0,1-.84,1,12.47,12.47,0,0,1-7.4-.17,4,4,0,0,1-.36-7.69,10.64,10.64,0,0,1,7.93-.32,3.87,3.87,0,0,1,.88.57Z"/><path d="M203.94,116.7H201c-1.17,0-2.34,0-3.51,0-.89,0-1.16-.33-1.14-1.18,0-2.21,0-4.43,0-6.64,0-.57,0-1.12.79-1.12l6.39,0c.13,0,.27.13.41.48a6,6,0,0,1-1,.17c-1.29,0-2.59,0-3.88,0-.8,0-1.1.29-1.12,1.1-.06,2-.09,2,2,2h3.15l.06.52a3.82,3.82,0,0,1-1,.3c-1.13,0-2.26,0-3.38.05a1.17,1.17,0,0,0-.82.76c-.38,2.6-.22,2.76,2.4,2.76H204Z"/><path d="M28.89,108.36l-1.88.1c-.42,0-.83,0-1.25,0-2.81,0-2.81,0-2.53,3.12,1.2,0,2.44,0,3.67,0a4.64,4.64,0,0,1,1.24.42,5.65,5.65,0,0,1-1.29.37c-1.16.05-2.33,0-3.6,0V116H29l0,.46a4.18,4.18,0,0,1-.9.21c-1.88,0-3.76,0-5.63,0-.85,0-1.07-.33-1.06-1.12,0-2.25,0-4.51,0-6.76,0-.58,0-1.08.83-1.07,2,0,4.09,0,6.13,0a1.32,1.32,0,0,1,.42.16Z"/><path d="M213.34,115.61a45,45,0,0,0,5.06.19,2.25,2.25,0,0,0,1.55-1.29c.32-.9-.6-1.26-1.3-1.53-1.09-.42-2.23-.7-3.31-1.15-.86-.35-1.69-.87-1.64-2a2,2,0,0,1,1.87-1.89,32.64,32.64,0,0,1,4.69,0c.29,0,.57.39.85.6l-.17.37a10.55,10.55,0,0,0-1.11-.22,13.12,13.12,0,0,0-3-.18,2.06,2.06,0,0,0-1.38,1.18c-.1.3.54,1.06,1,1.32a15.79,15.79,0,0,0,2.47.87,4.34,4.34,0,0,1,1.49.62c.54.49,1.3,1.2,1.26,1.77a2.7,2.7,0,0,1-1.34,1.86,8.51,8.51,0,0,1-6.35.21C213.76,116.26,213.58,115.87,213.34,115.61Z"/><path d="M287.92,109.21a10.6,10.6,0,0,0-2.22-.59,11.18,11.18,0,0,0-3.44.21,3.39,3.39,0,0,0-2.32,3.73,3.25,3.25,0,0,0,2.77,3.24,9.47,9.47,0,0,0,2.72.08,17.49,17.49,0,0,0,2.52-.63l.25.25c-.32.29-.59.72-1,.83a10.15,10.15,0,0,1-6,.08,3.94,3.94,0,0,1-3-3.6,4.15,4.15,0,0,1,2.32-4.36,8.4,8.4,0,0,1,6.8-.33c.33.11.56.5.83.76Z"/><path d="M48.33,109.2a10.81,10.81,0,0,0-2.12-.57,11.4,11.4,0,0,0-3.32.11,3.43,3.43,0,0,0-2.54,3.71c.09,1.79,1,3.14,2.82,3.31a39.24,39.24,0,0,0,5.41-.2c-.23.21-.48.62-.82.73a10,10,0,0,1-6.16.11,3.93,3.93,0,0,1-3-3.49,4.15,4.15,0,0,1,2.23-4.41,8.36,8.36,0,0,1,6.91-.37c.32.11.55.47.82.72Z"/><path d="M7.65,116.65H5.94c0-2.19,0-4.3,0-6.42,0-1.7,0-1.7-1.75-1.7H1.57v-.71c3.41-.11,6.82,0,10.23,0l0,.63-4.19.23Z"/><path d="M123.78,112.16c0-1.13-.06-2.26,0-3.38a1.34,1.34,0,0,1,.73-1c.77-.18.82.48.82,1,0,1.92,0,3.84,0,5.76,0,.93.22,1.38,1.26,1.29a31.48,31.48,0,0,1,3.5,0c.22,0,.43.25.65.38-.2.15-.4.42-.61.43-1.88,0-3.75.05-5.63,0-.26,0-.7-.55-.72-.88C123.73,114.58,123.78,113.36,123.78,112.16Z"/><path d="M185.19,116.56c-1.21.4-1.7.13-1.66-1.08.07-2.21,0-4.43,0-6.64,0-.56,0-1.1.79-1.12s.86.55.86,1.17C185.19,111.42,185.19,114,185.19,116.56Z"/><path d="M245.91,116.65H244.3c0-2.81,0-5.56,0-8.3,0-.22.55-.6.82-.58a1,1,0,0,1,.72.71C245.94,111.15,245.91,113.82,245.91,116.65Z"/></g></g></svg>