<svg xmlns="http://www.w3.org/2000/svg" viewBox="0 0 703.35 243.02"><!--<defs><style>.cls-1{fill:#0192d5;}.cls-2{fill:#3c3c3c;}.cls-3{fill:#008ebf;}</style></defs>--><title>Paulfolio logo</title><g id="Layer_2" data-name="Layer 2"><g id="Layer_1-2" data-name="Layer 1" fill="white"><path class="cls-1" d="M316.25,102.14H329v5h.25a17.27,17.27,0,0,1,14.18-6.56c16.14,0,22.21,14.18,22.21,24.75,0,13.11-9.18,23.85-22.13,23.85-8.2,0-12-3.93-13.69-5.65v19.26h-13.6Zm35.81,22.78c0-5.41-3.93-11.64-11.39-11.64s-11.39,6.23-11.39,11.64a11.39,11.39,0,1,0,22.78,0Z"/><path class="cls-1" d="M421.14,147.62h-13.6V142.7h-.17c-2.29,4.43-7.95,6.47-13.27,6.47-14.42,0-22.86-11.31-22.86-24.34,0-14.91,10.74-24.26,22.86-24.26,7.46,0,11.63,3.61,13.27,6.39h.17v-4.84h13.6Zm-25-11.14c8.52,0,11.39-7.21,11.39-11.64,0-5.49-3.77-11.56-11.47-11.56s-11.23,6.56-11.23,11.72C384.83,129.26,387.94,136.47,396.14,136.47Z"/><path class="cls-1" d="M473.16,147.62H460.3v-4.84h-.16c-2.79,5.82-8.36,6.31-11.8,6.31-2.79,0-9.34-.66-13.36-5.74-3.61-4.51-4.1-7.78-4.1-14V102.14h13.6v25.16c0,3.11,0,9.1,7.3,9.1,3.93,0,7.78-2,7.78-9.26v-25h13.6Z"/><path class="cls-1" d="M483,87h13.6v60.64H483Z"/><path class="cls-2" d="M511.37,116.92h-5.08V106.59h5.08V99.76c0-12.78,10.74-13.93,17.37-13.93h10.88V96.07H529.15a3.9,3.9,0,0,0-4.18,4.26v6.26h8v10.33h-8v30.7h-13.6Z"/><path class="cls-2" d="M565.33,104.08c-2.8,0-3-.05-3,1.35v10.84c-.05,4.93-3.79,5.29-5.6,5.44l-2.23.21c1.81.1,7.78,1,7.83,4.77v11c0,1.4.21,1.35,3,1.35h5.23v8.56h-5c-4,0-12,.78-12-5.13v-11c0-2.85-6.16-3.16-7.41-3.16v-13c1.25,0,7.41-.36,7.41-3.47v-11.2c0-5,3.89-5.13,7.93-5.13h9v8.56Z"/><path class="cls-2" d="M573.16,104.08V95.52h9c4,0,7.93.16,7.93,5.13v11.2c0,3.11,6.17,3.47,7.41,3.47v13c-1.25,0-7.41.31-7.41,3.16v11c0,5-3.89,5.13-7.93,5.13h-9V139h5.23c2.8,0,3,.05,3-1.35v-11c.05-3.79,6-4.67,7.83-4.77l-2.23-.21c-1.81-.16-5.55-.52-5.6-5.44V105.43c0-1.4-.21-1.35-3-1.35Z"/><path class="cls-2" d="M607.32,87h13.6v60.64h-13.6Z"/><path class="cls-2" d="M645.83,120.53H631.65v-9.47h14.18ZM642,147.62H631.65V127h14.18v28.36c0,8-5.49,7.69-8.36,7.69h-5.82V152.37l3.79.09,4,5.2"/><path class="cls-2" d="M678.85,100.66c16.55,0,24.5,13,24.5,24.17S695.41,149,678.85,149s-24.5-13-24.5-24.17S662.3,100.66,678.85,100.66Zm0,35.65c5.9,0,10.9-4.83,10.9-11.47s-5-11.47-10.9-11.47S668,118.2,668,124.84,673,136.31,678.85,136.31Z"/><path class="cls-3" d="M192.53,142.8c-.19.23-.32.56-.56.68-1.79.92-2.44,2.55-2.89,4.36-1.09,4.31-2.16,8.62-3.35,12.9a18.32,18.32,0,0,1-3.48,7c-2.32,2.75-5.54,3.72-8.91,4.13a44.73,44.73,0,0,1-16-.76A20,20,0,0,1,144.06,161a99.07,99.07,0,0,1-5.57-13.08c-.9-2.34-2.11-3.13-4.45-3a3.84,3.84,0,0,0-4,3c-1,3-2,6.07-3.21,9a28.63,28.63,0,0,1-4.7,7.81,18.43,18.43,0,0,1-10.46,6.48,43.89,43.89,0,0,1-17.28.63c-6-1-9.42-4.71-10.95-10.35-1.21-4.47-2.24-9-3.39-13.47-.45-1.77-1.09-3.44-2.89-4.38a1.65,1.65,0,0,1-.52-1.27c0-1.85,0-3.7.21-5.54a1.57,1.57,0,0,1,1.05-1,66.12,66.12,0,0,1,6.91-1.08c5.67-.47,11.34-1,17-1.14a75.61,75.61,0,0,1,26.65,4.3,17,17,0,0,0,11.95-.22c10.22-3.88,20.85-4.6,31.62-4,6,.35,12,1.05,18,1.63,2,.19,2,.24,2.45,2Zm-8.85,6.46a29.7,29.7,0,0,0,0-3.39c-.55-4.75-2-6.64-6.28-7.61a56.82,56.82,0,0,0-16.83-1.3,48.58,48.58,0,0,0-12.6,2.44,5.64,5.64,0,0,0-4.07,4.41,13,13,0,0,0-.25,2.92,28.46,28.46,0,0,0,6.15,16.78,13.29,13.29,0,0,0,7.56,4.85,41.27,41.27,0,0,0,15.15.85c4.33-.6,7.64-2.63,9.16-7A34.8,34.8,0,0,0,183.68,149.27Zm-78.84-12.36a66.54,66.54,0,0,0-13.64,1.6,7.17,7.17,0,0,0-5.56,6.23A31.81,31.81,0,0,0,85.78,155a31.57,31.57,0,0,0,2.38,9.15,9.09,9.09,0,0,0,6.69,5.34,35.73,35.73,0,0,0,16.56-.63,13.23,13.23,0,0,0,7.53-5.09A31.09,31.09,0,0,0,125,147.91c.45-5.49-1.54-8.08-6.9-9.41A60,60,0,0,0,104.85,136.91Z"/><path class="cls-3" d="M177.46,155l-21.12,9.63v-5.36l15.1-6v-.09l-15.1-6.47V141.3l21.12,10Z"/><path class="cls-3" d="M90.81,151.34l21.12-10v5.38l-15.1,6.47v.09l15.1,6v5.36L90.81,155Z"/><path class="cls-1" d="M129.08.16C59.6,3.45,3.33,59.82.15,129.3A135.46,135.46,0,0,0,52.66,243l.16,0,33.88-10.49,6.8,4.16s10.28-16.86,11.82-24.74c0,0-10.73-4.38-14.45-7.88l-5-26.93s-3.67,12.66-14.36-5.51a24.5,24.5,0,0,1-3.4-12.87c.1-5.22.91-11.73,4.19-13.37,0,0,3.5-2.85,5.26,1.09,0,0-1.09-18,0-29.34H73.35S76.41,105.3,79,99.61l.62-1.32L67,98.07s3.72-6.35,14-10.29l-2-2.63s4.6-8.1,21.9-18c0,0,3.28-24.31-3.07-29.56s41.39,20.8,41.39,20.8L137,47.27s20.41,9.42,22.81,14.45V57.56s19.27,7.66,18.61,26.93c0,0,2.63,1.31,2.85-4.82,0,0,13.58,7.88,10.07,66.57,0,0,9.85-6.57,10.51,4.16,0,0-2,20.36-7.66,24.74,0,0-1.75,4.82-9.63,4.38l-5.47,22.55a81.85,81.85,0,0,1-12,7.88l13.58,23.21.88,1.8,2.19-3.11,2.41-3.5s34.16,8.32,36.13,11.17l.26.4A135.68,135.68,0,0,0,129.08.16Z"/></g></g></svg>